<?xml version="1.0" standalone="no"?>
<!DOCTYPE svg PUBLIC "-//W3C//DTD SVG 20010904//EN"
 "http://www.w3.org/TR/2001/REC-SVG-20010904/DTD/svg10.dtd">
<svg version="1.0" xmlns="http://www.w3.org/2000/svg"
 width="225.000000pt" height="225.000000pt" viewBox="0 0 225.000000 225.000000"
 preserveAspectRatio="xMidYMid meet">
<metadata>
Created by potrace 1.14, written by Peter Selinger 2001-2017
</metadata>
<g transform="translate(0.000000,225.000000) scale(0.100000,-0.100000)"
fill="#000000" stroke="none">
<path d="M795 2048 c-3 -7 -6 -141 -7 -298 l-3 -285 -295 -5 -295 -5 0 -30 0
-30 295 -5 295 -5 0 -260 0 -260 -295 -5 -295 -5 0 -30 0 -30 295 -5 295 -5 5
-295 5 -295 30 0 30 0 5 295 5 295 260 0 260 0 5 -295 5 -295 30 0 30 0 5 295
5 295 295 5 295 5 0 30 0 30 -295 5 -295 5 0 260 0 260 295 5 295 5 0 30 0 30
-295 5 -295 5 -5 295 -5 295 -30 0 -30 0 -5 -295 -5 -295 -260 0 -260 0 -5
295 -5 295 -28 3 c-16 2 -29 -2 -32 -10z m590 -923 l0 -260 -260 0 -260 0 -3
250 c-1 137 0 255 3 262 3 11 60 13 262 11 l258 -3 0 -260z"/>
<path d="M1025 1346 c-192 -91 -192 -351 0 -442 123 -58 266 -3 324 126 38 85
19 193 -47 264 -40 42 -118 76 -177 76 -32 0 -68 -9 -100 -24z m192 -82 c53
-40 68 -71 68 -139 0 -69 -15 -99 -69 -139 -39 -30 -143 -30 -182 0 -106 79
-95 238 21 290 41 20 129 13 162 -12z"/>
<path d="M1052 1965 c-124 -39 -197 -174 -162 -300 16 -56 81 -132 135 -156
24 -11 63 -19 100 -19 77 0 129 24 182 83 118 135 59 341 -113 393 -57 17 -86
17 -142 -1z m144 -84 c57 -26 87 -72 92 -140 4 -65 -19 -109 -77 -148 -72 -49
-174 -23 -229 57 -31 46 -28 130 8 179 26 37 90 71 135 71 17 0 48 -9 71 -19z"/>
<path d="M1681 1969 c-188 -57 -239 -295 -91 -422 111 -95 287 -68 364 56 73
119 28 285 -94 347 -47 24 -133 33 -179 19z m164 -103 c51 -39 68 -78 63 -146
-7 -96 -65 -150 -163 -150 -87 0 -154 61 -162 148 -13 140 151 232 262 148z"/>
<path d="M292 1888 c-23 -23 -11 -51 53 -117 l64 -67 -65 -65 c-68 -67 -79
-99 -42 -123 15 -9 29 1 91 62 l73 72 59 -61 c73 -74 89 -83 115 -69 35 19 23
49 -47 121 l-67 70 67 67 c67 68 77 88 55 110 -22 22 -39 13 -109 -55 l-69
-66 -69 66 c-70 68 -87 77 -109 55z"/>
<path d="M395 1346 c-192 -91 -192 -351 0 -442 123 -58 266 -3 324 126 38 85
19 193 -47 264 -40 42 -118 76 -177 76 -32 0 -68 -9 -100 -24z m192 -82 c53
-40 68 -71 68 -139 0 -69 -15 -99 -69 -139 -39 -30 -143 -30 -182 0 -106 79
-95 238 21 290 41 20 129 13 162 -12z"/>
<path d="M1582 1308 c-25 -25 -11 -54 53 -118 l65 -64 -66 -67 c-69 -69 -79
-99 -42 -123 15 -9 29 1 91 62 l73 72 64 -65 c70 -70 93 -83 115 -65 26 22 16
45 -50 110 -36 35 -65 69 -65 75 0 6 29 40 65 75 65 65 75 86 53 108 -22 22
-39 13 -112 -58 l-72 -70 -69 70 c-72 72 -83 78 -103 58z"/>
<path d="M1079 721 c-170 -33 -253 -235 -156 -377 98 -143 306 -143 404 0 121
175 -38 417 -248 377z m136 -101 c70 -44 95 -147 53 -222 -31 -54 -80 -82
-143 -82 -189 0 -227 267 -46 325 36 11 99 2 136 -21z"/>
<path d="M292 688 c-23 -23 -12 -44 58 -113 l70 -69 -70 -71 c-73 -74 -83 -97
-50 -115 26 -14 42 -5 114 69 l60 61 73 -71 c40 -39 78 -69 84 -67 7 2 19 14
27 26 14 21 10 26 -57 95 l-71 73 65 64 c71 70 85 112 44 125 -17 6 -35 -7
-93 -64 l-72 -71 -69 70 c-69 70 -90 81 -113 58z"/>
<path d="M1583 693 c-30 -12 -12 -54 51 -121 l65 -67 -65 -66 c-69 -69 -79
-99 -42 -123 15 -9 29 1 91 62 l73 72 49 -51 c75 -76 100 -92 125 -79 35 19
23 49 -47 121 l-67 70 67 67 c67 68 77 88 55 110 -22 22 -39 13 -109 -55 l-69
-66 -69 66 c-66 64 -80 72 -108 60z"/>
</g>
</svg>
